<?xml version="1.0" encoding="utf-8"?>
<!-- Generator: Adobe Illustrator 27.2.0, SVG Export Plug-In . SVG Version: 6.00 Build 0)  -->
<svg version="1.1" id="Layer_1" xmlns="http://www.w3.org/2000/svg" xmlns:xlink="http://www.w3.org/1999/xlink" x="0px" y="0px"
	 viewBox="0 0 385 455" style="enable-background:new 0 0 385 455;" xml:space="preserve">
<style type="text/css">
	.st0{fill-rule:evenodd;clip-rule:evenodd;fill:#FC4445;}
</style>
<path class="st0" d="M385,61.2L192.5,0L0,61.2v157.5C0,332.5,35,385,192.5,455C350,385,385,332.5,385,218.8V61.2z M253.8,148.8
	c0,33.8-27.4,61.2-61.2,61.2s-61.2-27.4-61.2-61.2s27.4-61.2,61.2-61.2S253.8,114.9,253.8,148.8z M94.1,260.9
	c-4.2,1.8-6.6,6-6.6,10.6c0,43.4,35.2,78.5,78.5,78.5H219c43.4,0,78.5-35.2,78.5-78.5c0-4.6-2.4-8.8-6.6-10.6
	c-12.7-5.4-44.1-15.9-98.4-15.9S106.8,255.4,94.1,260.9L94.1,260.9z"/>
</svg>
